<svg xmlns="http://www.w3.org/2000/svg" viewBox="0 0 100 100"><path d="M81.18 92.97c0 3.4 2.88 6.03 6.3 6.03s6.3-2.62 6.3-6.03-2.88-6.03-6.3-6.03-6.3 2.63-6.3 6.03z"/><path fill="#6a8349" d="M45.28 49.48c0 2.62 2.1 4.72 4.72 4.72s4.72-2.1 4.72-4.72-2.1-4.72-4.72-4.72-4.72 2.1-4.72 4.72z"/><path d="M79.1 68.6L54.2 18.56c-.8-1.57-2.36-2.62-4.2-2.62s-3.67 1.05-4.2 2.88L21.18 68.34c-.26.8-.52 1.3-.52 2.36 0 2.62 2.1 4.72 4.72 4.72 1.83 0 3.4-1.05 4.2-2.62L50 31.13l20.7 41.4c.8 1.57 2.36 2.62 4.2 2.62 2.62 0 4.72-2.1 4.72-4.72 0-.52-.26-1.3-.52-1.83z"/><path fill="#6a8349" d="M50 1C23 1 1 22.75 1 49.48s22 48.48 49 48.48S99 76.2 99 49.48C98.74 22.75 76.73 1 50 1zm0 89.6c-22.8 0-41.4-18.34-41.4-41.14C8.6 26.94 27.2 8.34 50 8.34s41.4 18.34 41.4 41.14C91.14 72 72.8 90.6 50 90.6z"/></svg>