<?xml version="1.0" encoding="iso-8859-1"?>
<!-- Generator: Adobe Illustrator 23.0.0, SVG Export Plug-In . SVG Version: 6.00 Build 0)  -->
<svg version="1.2" baseProfile="tiny" id="Layer_1" xmlns="http://www.w3.org/2000/svg" xmlns:xlink="http://www.w3.org/1999/xlink"
	 x="0px" y="0px" viewBox="0 0 50 50" xml:space="preserve">
<path fill="#707070" d="M32.14,49h-0.35c-3.44-0.84-6.58-2.59-9.11-5.07c-3.44-3.24-5.37-7.78-5.3-12.5
	c-0.02-1.91,0.78-3.74,2.19-5.02c1.42-1.37,3.32-2.12,5.3-2.1c1.99-0.03,3.91,0.72,5.35,2.09c1.44,1.27,2.26,3.1,2.25,5.02
	c-0.01,1.25,0.5,2.44,1.44,3.27c0.99,0.91,2.29,1.39,3.63,1.35c1.36,0.04,2.68-0.44,3.7-1.35c0.95-0.82,1.5-2.01,1.5-3.27
	c0.03-4.45-1.9-8.7-5.24-11.6c-3.41-3.2-7.94-4.94-12.61-4.84c-3.41-0.03-6.76,0.88-9.67,2.65c-2.82,1.66-5.1,4.1-6.56,7.04
	c-0.97,2.12-1.45,4.43-1.38,6.76c-0.01,2.97,0.54,5.9,1.6,8.68c0.24,0.52,0.01,1.14-0.5,1.38c-0.1,0.04-0.2,0.07-0.3,0.1
	c-0.77,0.23-1.27,0-1.5-0.68c-1.16-3.03-1.79-6.23-1.85-9.47c-0.05-2.7,0.54-5.36,1.73-7.77c1.61-3.38,4.2-6.21,7.43-8.11
	c3.31-2.02,7.12-3.07,11-3.04c5.33-0.1,10.48,1.9,14.34,5.58c3.8,3.4,5.97,8.25,5.93,13.35c0.03,1.91-0.8,3.72-2.25,4.96
	c-1.46,1.34-3.37,2.07-5.35,2.03c-1.96,0.04-3.87-0.7-5.3-2.03c-1.41-1.26-2.21-3.07-2.18-4.96c0-1.27-0.54-2.48-1.5-3.32
	c-1-0.94-2.32-1.45-3.7-1.4c-1.35-0.04-2.66,0.47-3.63,1.41c-0.92,0.86-1.45,2.06-1.44,3.32c-0.05,4.09,1.62,8.02,4.61,10.82
	c2.25,2.16,5.03,3.68,8.06,4.4c0.7,0.07,0.96,0.56,0.8,1.46c-0.1,0.55-0.6,0.94-1.15,0.9L32.14,49z"/>
<path fill="#707070" d="M26.04,31.42c-0.02,2.74,1.14,5.36,3.17,7.2c2.12,2.03,4.96,3.13,7.9,3.04c0.16,0,0.5-0.04,1.04-0.1
	c0.44-0.07,0.88-0.1,1.33-0.11c0.35,0,0.7,0.06,1.04,0.17c0.34,0.1,0.6,0.4,0.64,0.74c0.2,0.58-0.1,1.2-0.7,1.4
	c-0.1,0.04-0.23,0.06-0.35,0.06c-1,0.16-2,0.23-3,0.23c-2.7,0.11-5.36-0.64-7.6-2.14c-3.68-2.2-5.9-6.2-5.87-10.48
	c-0.08-0.6,0.34-1.16,0.94-1.24c0,0,0.01,0,0.01,0c0.1-0.01,0.21-0.01,0.31,0C25.64,30.18,26.02,30.59,26.04,31.42L26.04,31.42
	L26.04,31.42z"/>
<path fill="#707070" d="M19.47,48.55c-0.3,0-0.6-0.12-0.8-0.34c-1.96-1.88-3.63-4.05-4.95-6.42c-1.8-3.15-2.72-6.74-2.65-10.37
	c-0.02-3.49,1.47-6.82,4.09-9.13c5.58-5.1,14.12-5.1,19.7,0c2.62,2.31,4.11,5.64,4.09,9.13c0,0.75-0.42,1.13-1.27,1.13
	s-1.27-0.37-1.27-1.13c0.03-2.86-1.2-5.6-3.34-7.5c-4.58-4.13-11.54-4.13-16.12,0c-2.15,1.9-3.37,4.63-3.34,7.5
	c-0.1,3.22,0.66,6.4,2.2,9.24c1.31,2.12,2.85,4.09,4.61,5.86c0.62,0.52,0.62,1.1,0,1.7c-0.25,0.23-0.58,0.34-0.92,0.33l-0.01,0.01
	L19.47,48.55z"/>
<path fill="#707070" d="M4.15,19.48C3.69,19.52,3.25,19.3,3,18.92c-0.23-0.4-0.18-0.9,0.1-1.24c2.35-3.37,5.52-6.08,9.21-7.88
	c8-3.9,17.34-3.9,25.34,0c3.7,1.74,6.87,4.42,9.2,7.77c0.46,0.75,0.35,1.3-0.35,1.7c-0.77,0.45-1.34,0.34-1.73-0.34
	c-2.14-2.98-5-5.4-8.3-6.98c-3.59-1.74-7.53-2.65-11.52-2.65c-4-0.07-7.95,0.84-11.52,2.65c-3.34,1.64-6.23,4.07-8.4,7.1
	c-0.2,0.28-0.54,0.45-0.9,0.44l0,0L4.15,19.48z"/>
<path fill="#707070" d="M39.3,6.86c-0.2,0.03-0.4-0.01-0.58-0.1C34.47,4.57,29.77,3.4,25,3.37c-4.78-0.05-9.5,1.1-13.7,3.38
	c-0.38,0.23-0.85,0.2-1.2-0.05C9.77,6.47,9.57,6.09,9.58,5.69c0.01-0.43,0.22-0.83,0.58-1.07C14.7,2.18,19.82,0.94,25,1
	c5.16,0.04,10.25,1.28,14.86,3.6c0.5,0.24,0.75,0.82,0.58,1.35c-0.1,0.54-0.6,0.93-1.15,0.89l0,0L39.3,6.86z"/>
</svg>
