<svg xmlns="http://www.w3.org/2000/svg" baseProfile="tiny" viewBox="0 0 50 50"><circle fill="#6b8449" cx="10.9" cy="20.7" r="4.5"/><path fill="#cff09e" d="M10.9 22.5a1.8 1.8 0 1 1 0-3.6 1.8 1.8 0 1 1 0 3.6z"/><circle fill="#6b8449" cx="38.1" cy="16.8" r="4.5"/><path fill="#cff09e" d="M38.1 18.5h-.05c-1.1-.03-1.9-.84-1.8-1.85 0-1.03.82-1.85 1.85-1.85s1.85.82 1.85 1.85-.82 1.85-1.85 1.85z"/><path fill="#6b8449" d="M27.6 1c-3 0-5.5 1.5-6.7 3.8C17.1 5 14 7.7 14 11.1c.1 1.7.9 3.3 2.3 4.5v3.2c0 1.1 1.2 1.7 2.1 1.1l3.5-2.5c2.5-.2 4.6-1.4 5.8-3.2l2.8 2c.9.6 2.1.0 2.1-1.1v-3.2c1.5-1.2 2.3-2.8 2.3-4.6C34.9 3.8 31.6 1 27.6 1z"/><path d="M21.77 14.75h-.3c-.2.1-.52.1-.73.3l-1.77 1.22v-1.22c0-.4-.2-.92-.63-1.12-.1 0-.2-.1-.2-.1-.94-.7-1.57-1.73-1.57-2.86 0-1.73 1.57-3.16 3.76-3.57.1 2.65 2.1 4.9 4.9 5.82-.84.9-2.1 1.4-3.45 1.52zm9-4.78c0 .1-.1.1-.2.2-.4.2-.6.72-.6 1.14v1.24l-1.72-1.35c-.2-.2-.4-.3-.7-.3h-.5c-2.12-.2-4.14-1.76-4.14-3.73 0-2.07 2.22-3.62 4.75-3.62S32.3 5.2 32.3 7.28c.01 1.03-.6 1.97-1.5 2.7z" fill="#fde89c"/><path fill="#6b8449" d="M47.7 30.5h-.5c-.5-3.7-3.2-6.8-7-7.6-.6-.2-1.2.2-1.5.7l-.6 1.4-.6-1.4c-.3-.6-.9-.9-1.5-.7-3.7.9-6.4 4-7 7.6H18v-1.2a3.7 3.7 0 0 0-3.7-3.7H7.5a3.7 3.7 0 0 0-3.7 3.7v1.2H2.3c-.7 0-1.3.6-1.3 1.3s.6 1.3 1.3 1.3h1.5v4.1c0 .7.6 1.3 1.3 1.3h.4v9.1c0 .7.6 1.3 1.3 1.3h8c.7 0 1.3-.6 1.3-1.3v-9.1h.4c.7 0 1.3-.6 1.3-1.3v-4.1h29.6c.7 0 1.3-.6 1.3-1.3.3-.7-.3-1.3-1-1.3zM13.6 46.3h-1.3v-4.1c0-.7-.6-1.3-1.3-1.3s-1.3.6-1.3 1.3v4.1H8.3v-7.7h5.3v7.7z"/><path d="M15.3 35.9H6.5v-6.6a1 1 0 0 1 .08-.38c.03-.07.07-.12.12-.18.03-.05.06-.1.1-.14s.1-.07.14-.1c.06-.04.1-.1.18-.12a1 1 0 0 1 .38-.08h6.8a1 1 0 0 1 .38.08c.07.03.12.07.18.12.05.03.1.06.14.1s.07.1.1.14c.04.06.1.1.1.18a1 1 0 0 1 .08.38v6.6zm16.3-5.4a6 6 0 0 1 3.9-4.7l1.4 2.9c.5 1 1.9 1 2.4 0l1.4-2.9a6.2 6.2 0 0 1 3.9 4.7h-13z" fill="#fde89c"/></svg>