<?xml version="1.0" encoding="utf-8"?>
<!-- Generator: Adobe Illustrator 24.0.0, SVG Export Plug-In . SVG Version: 6.00 Build 0)  -->
<svg version="1.1" id="Page-1" xmlns="http://www.w3.org/2000/svg" xmlns:xlink="http://www.w3.org/1999/xlink" x="0px" y="0px"
	 viewBox="0 0 18 21.18" enable-background="new 0 0 18 21.18" xml:space="preserve">
<path fill-rule="evenodd" clip-rule="evenodd" fill="#FFFFFF" d="M16.76,15.74c-0.59,0.02-1.09-0.45-1.11-1.05V9.42
	c0.07-3.23-2.35-5.95-5.54-6.23V2.06C10.08,1.44,9.55,0.97,8.94,1C8.37,1.03,7.92,1.49,7.89,2.06V3.2c-3.19,0.28-5.61,3-5.54,6.23
	v5.26c-0.02,0.6-0.51,1.07-1.11,1.05c-0.58,0-1.04,0.47-1.04,1.05s0.47,1.05,1.04,1.05H5.7C5.7,19.59,7.18,21,9,21
	s3.3-1.41,3.3-3.16h4.46c0.58,0,1.04-0.47,1.04-1.05C17.8,16.21,17.33,15.74,16.76,15.74z"/>
</svg>
