<svg xmlns="http://www.w3.org/2000/svg" baseProfile="tiny" viewBox="0 0 50 50"><path fill="#6b8449" d="M48.12 21.12l-4.8-1.5a18.8 18.8 0 0 0-1.55-3.73l2.33-4.44c.28-.53.17-1.15-.23-1.55l-3.7-3.72c-.42-.42-1.05-.5-1.55-.23l-4.44 2.32a19.2 19.2 0 0 0-3.73-1.55l-1.5-4.78c-.2-.57-.7-.94-1.3-.94H22.4c-.6 0-1.1.38-1.27.93l-1.5 4.78a18.8 18.8 0 0 0-3.73 1.55l-4.44-2.32c-.53-.28-1.16-.17-1.56.23L6.18 9.9c-.42.42-.5 1.05-.23 1.55l2.33 4.44c-.65 1.2-1.18 2.43-1.55 3.73l-4.8 1.5c-.57.2-.94.7-.94 1.28v5.22c0 .6.38 1.1.93 1.27l4.8 1.5a18.8 18.8 0 0 0 1.55 3.73l-2.33 4.44c-.28.53-.17 1.15.23 1.55l3.7 3.7c.42.42 1.05.5 1.55.23l4.44-2.32a19.2 19.2 0 0 0 3.73 1.55l1.5 4.78c.2.58.7.95 1.3.95h5.23c.6 0 1.1-.38 1.27-.93l1.5-4.78a18.8 18.8 0 0 0 3.73-1.55l4.44 2.32c.53.28 1.15.17 1.55-.23l3.7-3.7c.42-.42.5-1.05.23-1.55l-2.33-4.44c.65-1.2 1.18-2.43 1.55-3.73l4.8-1.5c.56-.17.93-.7.93-1.27v-5.22c.08-.63-.3-1.15-.85-1.32z"/><path d="M27.8 29.57h-5.5c-2.38 0-4.32 1.92-4.33 4.3a11.7 11.7 0 0 0 7.06 2.37c2.66 0 5.1-.9 7.1-2.4-.04-2.36-1.96-4.27-4.33-4.27zm13.62-.44c.1-.46.46-.84.93-.98l4.68-1.46v-3.4l-4.7-1.46a1.3 1.3 0 0 1-.94-.97 17.2 17.2 0 0 0-1.88-4.54c-.24-.4-.27-.9-.04-1.35l2.28-4.35-2.38-2.38-4.35 2.28c-.43.2-.93.2-1.35-.04a16.2 16.2 0 0 0-4.53-1.88c-.46-.1-.84-.46-.98-.93L26.7 3h-3.38l-1.46 4.7c-.15.45-.5.8-.98.93a16.8 16.8 0 0 0-4.53 1.88c-.4.24-.9.27-1.35.04l-4.33-2.3-2.4 2.4 2.3 4.35c.2.43.2.93-.04 1.35-.85 1.4-1.5 2.94-1.88 4.54-.1.46-.46.84-.93.98l-4.7 1.46v3.38l4.7 1.44c.45.15.8.5.93.98a17.2 17.2 0 0 0 1.88 4.54c.24.4.27.9.04 1.35L8.3 39.37l2.38 2.38 4.36-2.28c.42-.2.93-.2 1.35.04a16.2 16.2 0 0 0 4.53 1.88c.46.1.84.46.98.93l1.46 4.7h3.38l1.46-4.7c.15-.45.5-.8.98-.93a16.8 16.8 0 0 0 4.53-1.88c.4-.24.9-.27 1.35-.04l4.35 2.28 2.38-2.38-2.28-4.35c-.2-.43-.2-.93.04-1.35.85-1.4 1.5-2.94 1.88-4.54zm-16.4 9.58a13.7 13.7 0 0 1-13.71-13.7c0-7.56 6.16-13.7 13.7-13.7a13.7 13.7 0 1 1 0 27.4z" fill="#cff09e"/><path fill="#fde89c" d="M33.95 31.48c-.93-2.56-3.37-4.37-6.23-4.37h-5.34c-2.9 0-5.33 1.83-6.26 4.4a11 11 0 0 1-2.14-6.5c0-6.08 4.95-11.03 11.04-11.03 6.1 0 11.04 4.94 11.04 11.02 0 2.43-.78 4.67-2.1 6.5z"/><path fill="#6b8449" d="M25.02 16a4.9 4.9 0 0 0-4.9 4.89 4.9 4.9 0 1 0 9.8 0 4.9 4.9 0 0 0-4.9-4.89zm0 7.1c-1.22 0-2.23-1-2.23-2.23s1-2.23 2.23-2.23 2.23 1 2.23 2.23-1 2.23-2.23 2.23z"/></svg>