<svg xmlns="http://www.w3.org/2000/svg" baseProfile="tiny" viewBox="0 0 50 50"><path d="M48.57 22c-.5-.4-1.1-.4-1.7-.1 1.9-7.3-2-14.93-9-17.83l.1-.4c.2-.7-.1-1.4-.9-1.6-.7-.2-1.5.1-1.7.8l-.1.4a15.5 15.5 0 0 0-18.19 9.82c-.3.7.1 1.4.8 1.6.7.3 1.5-.1 1.7-.7.7-1.6 2.5-2.5 4.2-1.9 2.4.8 2.5 3.4 2.2 4.2-.2.7.1 1.4.9 1.6.7.2 1.5-.1 1.7-.8.5-1.3 1.7-2.2 2.9-2.3l-6.3 19.53H9.9c-.5 0-.9.3-1.1.7L1.2 47.14c-.4.6-.2 1.4.5 1.7s1.4.2 1.8-.5l7.1-11.62h13.9l-1.9 6.1c-.2.7.1 1.4.9 1.6.7.2 1.5-.2 1.7-.8l2.2-6.9H36l7.1 11.62c.4.6 1.2.8 1.8.5.6-.4.8-1.2.5-1.8l-7-11.22L48.7 23.8c.5-.6.4-1.4-.1-1.8zm-12.3 12.3h-8.2l6-18.63a3.1 3.1 0 0 1 1 3.5c-.2.7.1 1.4.9 1.6.7.2 1.5-.1 1.7-.8.6-1.8 2.5-2.7 4.3-2.2a3.4 3.4 0 0 1 2.3 4.01c-.2.7.2 1.4.9 1.6.1.1.3.1.5.1l-9.4 10.8zM12.8 6.2h-.3c-.1-.5-.3-.8-.5-1.2l.1-.1c.5-.5.5-1.3 0-1.8s-1.3-.5-1.9 0l-.1.1c-.3-.4-.8-.6-1.2-.6v-.3c0-.7-.6-1.3-1.3-1.3s-1.3.6-1.3 1.3v.3c-.5 0-.9.2-1.3.4l-.2-.1c-.5-.5-1.3-.5-1.9 0s-.5 1.3 0 1.8l.1.1c-.1.5-.3.9-.4 1.4h-.3c-.7 0-1.3.5-1.3 1.3 0 .7.6 1.3 1.3 1.3h.3a6.1 6.1 0 0 0 .5 1.2l-.1.1c-.5.5-.5 1.3 0 1.8.3.3.6.4.9.4s.7-.1.9-.4l.1-.1c.4.2.8.4 1.3.5v.3c0 .7.6 1.3 1.3 1.3s1.3-.6 1.3-1.3v-.3c.5-.1.9-.3 1.3-.5l.1.1c.3.3.6.4.9.4s.7-.1.9-.4c.5-.5.5-1.3 0-1.8V10c.2-.4.4-.8.5-1.2h.3c.7 0 1.3-.6 1.3-1.3-.01-.8-.6-1.3-1.3-1.3zM7.6 9.9C6.2 9.9 5 8.8 5 7.5S6.1 5 7.5 5 10 6.1 10 7.5c.1 1.3-1 2.4-2.4 2.4z" fill="#6b8449"/><path fill="#fde89c" d="M7.6 5C6.2 5 5 6.1 5 7.5S6.1 10 7.5 10 10 8.9 10 7.5C10.1 6.1 9 5 7.6 5z"/><path fill="#cff09e" d="M28.5 13.08c-.1-.2-1.9-2.8-4.02-3.48-.63-.1-1.05-.28-1.88-.33l.64-.6c3.45-3.02 8.45-4.23 13.26-2.75 4.9 1.57 7.35 5.55 8.08 10.36-.52-.42-5.53-1.35-7.1-.3-.1-.2-.95-1.96-3.36-3.3a6.3 6.3 0 0 0-5.62.41z"/></svg>