<svg xmlns="http://www.w3.org/2000/svg" baseProfile="tiny" viewBox="0 0 50 50"><path d="M43.7 29.2C43.7 36.3 38 42 30.9 42a12.8 12.8 0 0 1-9.1-3.8v-18a12.2 12.2 0 0 1 8-3.7c-.2.2-.3.5-.3.8v11.9c0 .7.6 1.3 1.3 1.3h6.8c.7 0 1.3-.6 1.3-1.3s-.6-1.3-1.3-1.3h-5.4V17.3c0-.3-.1-.6-.3-.8 6.6.5 11.8 6 11.8 12.7zM10 3.7C8.2 3.7 6.8 5.1 6.8 7c0 1.8 1.5 3.3 3.3 3.3s3.3-1.5 3.3-3.3c-.1-1.9-1.6-3.3-3.4-3.3z" fill="#cff09e"/><path fill="#fde89c" d="M16.3 19.8c0-1.3-1-2.3-2.2-2.4l-2.9 6.4c-.5 1-1.9 1-2.4.0l-2.9-6.4c-1.3.1-2.2 1.2-2.2 2.4v12.3h12.7L16.3 19.8z"/><path d="M10 12.9A5.9 5.9 0 0 0 15.9 7c.1-3.3-2.6-6-5.9-6a5.9 5.9 0 0 0-5.9 5.9 6 6 0 0 0 5.9 6zm0-9.2c1.8 0 3.3 1.5 3.3 3.3s-1.5 3.3-3.3 3.3S6.8 8.8 6.8 7 8.2 3.7 10 3.7zm20.8 7.4c-4.9 0-9.5 2-13 5.5a5 5 0 0 0-3.9-1.8h-.6a1.3 1.3 0 0 0-1.2.8L10 20l-2-4.5a1.3 1.3 0 0 0-1.2-.8h-.7A5.1 5.1 0 0 0 1 19.8v13.6c0 .7.6 1.3 1.3 1.3h.8v12.9c0 .7.6 1.3 1.3 1.3h11.2c.7 0 1.3-.6 1.3-1.3v-6.7a18.1 18.1 0 0 0 31.9-11.7c.2-10-7.9-18.1-18-18.1zM14.3 46.3h-3v-7.1c0-.7-.6-1.3-1.3-1.3s-1.3.6-1.3 1.3v7.1H5.8V34.7h8.6v11.6h-.1zm2.1-14.2H3.7V19.8a2.4 2.4 0 0 1 2.2-2.4l2.9 6.4c.5 1 1.9 1 2.4 0l2.9-6.4a2.4 2.4 0 0 1 2.2 2.4l.1 12.3zm14.4 12.6A15.3 15.3 0 0 1 17 36.1v-1.4h.8c.7 0 1.3-.6 1.3-1.3V19.2c2.9-3.5 7.2-5.5 11.8-5.5a15.5 15.5 0 0 1 15.5 15.5 15.6 15.6 0 0 1-15.6 15.5zm6.8-16.8h-5.4V17.3c0-.7-.56-1.42-1.36-1.42-.77 0-1.34.72-1.34 1.42v11.95c0 .7.6 1.25 1.32 1.25h6.88c.7 0 1.3-.6 1.3-1.3 0-.73-.7-1.3-1.4-1.3z" fill="#6b8449"/></svg>