<svg xmlns="http://www.w3.org/2000/svg" baseProfile="tiny" viewBox="0 0 50 50"><g fill="#cff09e"><path d="M31.8 6.3c-3.8.0-7.2 1.8-9.4 4.6h1.4c.7.0 1.3.6 1.3 1.3s-.6 1.3-1.3 1.3h-3c-.3.8-.5 1.5-.7 2.4h1.2c.7.0 1.3.6 1.3 1.3.0.7-.6 1.3-1.3 1.3H20c.1 2 .7 4 1.7 5.7 2.6-2.4 6.2-3.8 10.1-3.8s7.4 1.4 10.1 3.8c1.1-1.8 1.7-4 1.7-6.2C43.7 11.6 38.4 6.3 31.8 6.3z"/><path d="M31.8 9.7c-1.7 0-3.2 1.4-3.2 3.2s1.4 3.2 3.2 3.2c1.7 0 3.2-1.4 3.2-3.2s-1.4-3.2-3.2-3.2z"/></g><path fill="#fde89c" d="M42 28.5c-2.1-3.2-6-5.3-10.2-5.3s-8 2.1-10.2 5.3c2.7 2.7 6.4 4.2 10.2 4.2S39.3 31.1 42 28.5z"/><path fill="#cff09e" d="M17.7 27.9L4.6 41.1c-1.2 1.2-1.2 3.1 0 4.3s3.1 1.2 4.3 0l13.2-13.1a18.4 18.4 0 0 1-4.4-4.4z"/><path d="M31.8 7a5.8 5.8 0 1 0 5.8 5.8c.1-3.2-2.5-5.8-5.8-5.8zm0 9c-1.7 0-3.2-1.4-3.2-3.2s1.4-3.2 3.2-3.2c1.7 0 3.2 1.4 3.2 3.2S33.6 16 31.8 16zm0-15a17.2 17.2 0 0 0-17.2 17.2 17.1 17.1 0 0 0 1.7 7.4h0L2.7 39.2a5.8 5.8 0 0 0 0 8.1 5.8 5.8 0 0 0 8.1 0l13.7-13.7h.1c2.3 1.1 4.7 1.6 7.3 1.6 7.9 0 17.2-6.4 17.2-17.2C49 8.7 41.3 1 31.8 1zM8.9 45.4c-1.2 1.2-3.1 1.2-4.3 0s-1.2-3.1 0-4.3L17.8 28c1.2 1.7 2.7 3.2 4.3 4.3L8.9 45.4zm22.9-12.7c-3.8 0-7.5-1.5-10.2-4.2 2.1-3.3 6-5.3 10.2-5.3A12.4 12.4 0 0 1 42 28.5a14.9 14.9 0 0 1-10.2 4.2zm12-6.4a14.9 14.9 0 0 0-11.9-5.9c-4.8 0-9.2 2.2-11.9 5.9-1.7-2.4-2.6-5.3-2.6-8.2a14.5 14.5 0 1 1 29 0 15.6 15.6 0 0 1-2.6 8.2z" fill="#6b8449"/></svg>