<svg xmlns="http://www.w3.org/2000/svg" baseProfile="tiny" viewBox="0 0 50 50"><path fill="#6b8449" d="M29.3 35.8l4.4-4.8v-4.8a4.7 4.7 0 0 1 4.7-4.7 2.2 2.2 0 0 1 .8.1v-5a4.9 4.9 0 0 1 9.8 0v16.5c0 1-.4 2-1.1 2.7l-6.5 6.8c-.2.2-.3.5-.3.9v1.6a3.9 3.9 0 0 1-3.9 3.9h-6a3.9 3.9 0 0 1-3.9-3.9v-3.9c0-2.1.7-4 2-5.4z"/><g fill="#cff09e"><path d="M29.9 44.9c0 .7.6 1.3 1.3 1.3h6c.7 0 1.3-.6 1.3-1.3v-1.6c0-1 .4-2 1.1-2.7l6.4-6.8c.2-.2.3-.5.3-.9V16.4c0-1.2-1-2.2-2.2-2.2s-2.2 1-2.2 2.2v6.5a4.8 4.8 0 0 1 1.3 3.2v5.5c0 .7-.6 1.3-1.3 1.3s-1.3-.6-1.3-1.3v-5.5c0-1.1-.9-2.1-2.1-2.1s-2.1.9-2.1 2.1v5.3c0 .3-.1.6-.3.9l-4.7 5.2c-.9.9-1.3 2.2-1.3 3.5l-.2 3.9z"/><path d="M45.8 33.88c.2-.2.3-.5.3-.9v-16.5c0-1.2-1-2.2-2.2-2.2s-2.2 1-2.2 2.2v6.5c.8.9 1.3 2 1.3 3.2v5.5c0 .7-.6 1.3-1.3 1.3s-1.3-.6-1.3-1.3v-5.5c0-1.1-.9-2.1-2.1-2.1s-2.1.9-2.1 2.1v5.3c0 .3-.1.6-.3.9l-4.7 5.2c-.9.9-1.3 2.2-1.3 3.5v3.9c0 .7.6 1.3 1.3 1.3h6c.7.0 1.3-.6 1.3-1.3v-1.6c0-1 .4-2 1.1-2.7L45.8 33.88z"/></g><path d="M20.7 35.8L16.3 31v-4.8a4.7 4.7 0 0 0-4.7-4.7c-.3 0-.5 0-.8.1v-5a4.9 4.9 0 1 0-9.8 0v16.5c0 1 .4 2 1.1 2.7l6.5 6.8c.2.2.3.5.3.9v1.6a3.9 3.9 0 0 0 3.9 3.9h6a3.9 3.9 0 0 0 3.9-3.9v-3.9c0-2.1-.7-4-2-5.4zm-1.9 10.48h-6c-.7 0-1.3-.6-1.3-1.3v-1.6c0-1-.4-2-1.1-2.7L4 33.88c-.2-.2-.3-.5-.3-.9v-16.5c0-1.2 1-2.2 2.2-2.2s2.2 1 2.2 2.2v6.5a4.8 4.8 0 0 0-1.3 3.2v5.5c0 .7.6 1.3 1.3 1.3s1.3-.6 1.3-1.3v-5.5c0-1.1.9-2.1 2.1-2.1s2.1.9 2.1 2.1v5.3c0 .3.1.6.3.9l4.7 5.2c.9.9 1.3 2.2 1.3 3.5l.2 3.9c0 .7-.6 1.3-1.3 1.3zM30.35 1c-2.2 0-4.1 1-5.4 2.6-1.3-1.6-3.2-2.6-5.4-2.6a6.9 6.9 0 0 0-6.9 6.9c0 7.7 11.1 15.1 11.6 15.4.4.3 1.1.3 1.5 0 .5-.3 11.6-7.6 11.6-15.4-.1-3.8-3.2-6.9-7-6.9z" fill="#6b8449"/><path fill="#fde89c" d="M25 21C21.67 18.6 15 12.9 15 7.9a4.4 4.4 0 0 1 4.38-4.37 4.3 4.3 0 0 1 3.71 2.03 3.8 3.8 0 0 1 .46 1c.03.1.08.2.1.3a1.3 1.3 0 0 0 2.44.43l.03-.06c.06-.1.1-.22.15-.35.01-.02.01-.04.02-.06.43-1.96 2.27-3.3 4.34-3.3a4.4 4.4 0 0 1 4.38 4.37C35 12.9 28.33 18.6 25 21z"/></svg>