<svg xmlns="http://www.w3.org/2000/svg" baseProfile="tiny" viewBox="0 0 50 50"><path fill="#6b8449" d="M47.7 1H18.8c-.7 0-1.3.6-1.3 1.3s.6 1.3 1.3 1.3h1v13.9c0 2.9 2.4 5.3 5.3 5.3h6.8v3.5a3.8 3.8 0 0 0-2.5 3.6 3.9 3.9 0 0 0 3.9 3.9c2.2 0 3.9-1.7 3.9-3.9 0-1.7-1.1-3.1-2.5-3.6v-3.5h6.8c2.9 0 5.3-2.4 5.3-5.3V3.7h1c.7 0 1.3-.6 1.3-1.3S48.4 1 47.7 1zM44 17.6a2.7 2.7 0 0 1-2.7 2.7H25.1a2.7 2.7 0 0 1-2.7-2.7V3.7H44v13.9zM33.2 31.2c-.6 0-1.2-.5-1.2-1.2 0-.6.5-1.2 1.2-1.2.6 0 1.2.5 1.2 1.2 0 .6-.5 1.2-1.2 1.2z"/><path fill="#cff09e" d="M25.1 6.3v1.9h4c.7.0 1.3.6 1.3 1.3s-.6 1.3-1.3 1.3h-4v2.7h1.3c.7.0 1.3.6 1.3 1.3s-.6 1.3-1.3 1.3h-1.3v1.3h16.3V6.3H25.1z"/><path d="M9.8 17.4a5.4 5.4 0 0 0 5.4-5.4 5.4 5.4 0 0 0-5.4-5.4A5.4 5.4 0 0 0 4.4 12c-.1 3 2.4 5.4 5.4 5.4zm0-8.2a2.7 2.7 0 0 1 2.7 2.7 2.7 2.7 0 0 1-2.7 2.7C8.3 14.6 7 13.5 7 12a2.8 2.8 0 0 1 2.8-2.8zm4.4 9.6h-.9a1.3 1.3 0 0 0-1.2.8l-2.3 5.2-2.3-5.2a1.3 1.3 0 0 0-1.2-.8h-1c-2.4 0-4.3 1.9-4.3 4.3V35c0 .7.6 1.3 1.3 1.3h.9v11.3c0 .7.6 1.3 1.3 1.3h10.3c.7 0 1.3-.6 1.3-1.3V36.3h.9c.7 0 1.3-.6 1.3-1.3V23.2c.2-2.4-1.7-4.4-4.1-4.4zm-.6 27.5h-2.5v-5c0-.7-.6-1.3-1.3-1.3s-1.3.6-1.3 1.3v5H5.9v-10h7.7v10z" fill="#6b8449"/><path fill="#fde89c" d="M15.9 23.2v10.5H3.7V23.1c0-1 .8-1.6 1.7-1.6l3.2 6.9c.4 1.1 1.9 1.1 2.4 0l3.2-6.9c.12 0 .23.01.34.03.08.01.15.04.22.06l.1.03c.07.03.12.06.18.1l.1.06c.04.03.07.06.1.08.06.04.1.1.16.14l.03.03c.2.22.36.5.42.84a1.9 1.9 0 0 1 .03.32v.02z"/></svg>