<?xml version="1.0" encoding="utf-8"?>
<!-- Generator: Adobe Illustrator 24.0.0, SVG Export Plug-In . SVG Version: 6.00 Build 0)  -->
<svg version="1.1" id="Page-1" xmlns="http://www.w3.org/2000/svg" xmlns:xlink="http://www.w3.org/1999/xlink" x="0px" y="0px"
	 viewBox="0 0 22 22" enable-background="new 0 0 22 22" xml:space="preserve">
<g id="Dribbble-Light-Preview">
	<g id="icons">
		<path id="menu_navigation_grid-_1528_" fill-rule="evenodd" clip-rule="evenodd" fill="#FFFFFF" d="M19,18.01
			c-0.02,0.56-0.49,1-1.04,0.99h-3C14.43,19,14,18.57,14,18.04c0-0.01,0-0.02,0-0.03v-3c-0.02-0.54,0.4-0.99,0.93-1.01
			c0.01,0,0.01,0,0.02,0h3c0.56,0,1.02,0.45,1.04,1.01L19,18.01L19,18.01z M17.96,12h-3C13.32,12.01,12,13.34,12,14.98
			c0,0.01,0,0.02,0,0.03v3c-0.02,1.63,1.29,2.97,2.92,2.99c0.01,0,0.03,0,0.04,0h3c1.66,0.01,3.02-1.33,3.04-2.99v-3
			C20.98,13.34,19.62,12,17.96,12z M8,18.01c-0.02,0.56-0.49,1-1.04,0.99h-3C3.43,19,3,18.57,3,18.04c0-0.01,0-0.02,0-0.03v-3
			C2.98,14.47,3.4,14.02,3.93,14c0.01,0,0.01,0,0.02,0h3c0.56,0,1.02,0.45,1.04,1.01v3H8z M6.96,12h-3
			C2.32,12.01,0.99,13.34,1,14.98c0,0.01,0,0.02,0,0.03v3C0.98,19.64,2.29,20.98,3.92,21c0.01,0,0.03,0,0.04,0h3
			c1.66,0.01,3.02-1.33,3.04-2.99v-3C9.98,13.34,8.62,12,6.96,12z M19,7.01c-0.02,0.56-0.49,1-1.04,0.99h-3C14.43,8,14,7.57,14,7.04
			c0-0.01,0-0.02,0-0.03v-3C13.98,3.47,14.4,3.02,14.93,3c0.01,0,0.01,0,0.02,0h3c0.56,0,1.02,0.45,1.04,1.01L19,7.01L19,7.01z
			 M17.96,1h-3C13.32,1.01,11.99,2.34,12,3.98c0,0.01,0,0.02,0,0.03v3c-0.02,1.63,1.29,2.97,2.92,2.99c0.01,0,0.03,0,0.04,0h3
			c1.66,0.01,3.02-1.33,3.04-2.99v-3C20.98,2.34,19.62,1,17.96,1z M8,7.01C7.98,7.57,7.51,8.01,6.96,8h-3C3.43,8,3,7.57,3,7.04
			c0-0.01,0-0.02,0-0.03v-3C2.98,3.47,3.4,3.02,3.93,3c0.01,0,0.01,0,0.02,0h3C7.52,3,7.98,3.45,8,4.01V7.01z M6.96,1h-3
			C2.32,1.01,0.99,2.34,1,3.98C1,3.99,1,4,1,4.01v3C0.98,8.64,2.29,9.98,3.92,10c0.01,0,0.03,0,0.04,0h3
			C8.62,10.01,9.98,8.67,10,7.01v-3C9.98,2.34,8.62,1,6.96,1z"/>
	</g>
</g>
</svg>
