<svg xmlns="http://www.w3.org/2000/svg" baseProfile="tiny" viewBox="0 0 50 50"><path fill="#6b8449" d="M39.9 30.8a49.5 49.5 0 0 0-8.7-1.6c-.6-.1-1.1.2-1.4.7l-4.9 9.9-4.9-9.9c-.3-.5-.8-.8-1.4-.7h0a60.8 60.8 0 0 0-8.7 1.6c-3.6.9-6 4.1-6 7.6v9.3c0 .7.6 1.3 1.4 1.3h39.3c.8 0 1.4-.6 1.4-1.3v-9.3a8.3 8.3 0 0 0-6.1-7.6zm3.3 15.6H6.6V38s.2-3.5 3.9-4.6c2.4-.7 4.8-1.1 7.4-1.4l5.7 11.5c.5 1 1.9 1 2.4 0L31.8 32a60.4 60.4 0 0 1 7.4 1.4h0c2.3.6 3.9 2.7 3.9 5l.1 8z"/><path d="M38.5 36l-5.1-1.1-4.4 8.8h11.4v-5.3c0-1.1-.8-2.1-1.9-2.4zm-23.4.7c.8 0 1.4.6 1.4 1.3s-.6 1.3-1.4 1.3H9.3v1.9h2.6c.8 0 1.4.6 1.4 1.3 0 .4-.2.8-.6 1.1h8l-4.4-8.8-5.1 1.1a2.4 2.4 0 0 0-1.2.7l5.1.1z" fill="#fde89c"/><path fill="#cff09e" d="M35.46 14.12a10.5 10.5 0 1 0-21 0 10.5 10.5 0 1 0 21 0z"/><g fill="#6b8449"><path d="M24.96.97a13.2 13.2 0 0 0-13.2 13.2 13.1 13.1 0 0 0 13.2 13.1 13.2 13.2 0 0 0 13.2-13.2c0-7.3-6-13.1-13.2-13.1zm0 23.7a10.5 10.5 0 1 1 0-21 10.5 10.5 0 1 1 0 21z"/><path stroke="#6b8449" stroke-miterlimit="10" d="M29.44 11.75H23.1v-1.1c0-1.35-1.1-2.54-2.54-2.54-.25 0-.5.25-.5.5s.25.5.5.5c.85 0 1.44.68 1.44 1.44v1h-1.52c-.25 0-.5.25-.5.5s.25.5.5.5H22v3.3a5 5 0 0 0 .93 3.13c.68.85 1.6 1.1 2.62 1.1.5 0 1.02-.08 1.44-.25 1.7-.6 2.37-2.62 2.03-4.23-.25-.93-.85-1.6-1.6-1.86-.5-.17-1.1-.08-1.6.17-.42.25-.76.6-.85 1.02-.17.5-.08 1.1.25 1.52.34.5.85.85 1.44.93.5.08 1.02-.08 1.44-.34-.17.85-.6 1.6-1.35 1.86-.93.34-2.2.25-2.88-.6-.6-.76-.76-1.78-.76-2.54v-3.3h6.35c.25 0 .5-.25.5-.5.1-.1-.17-.26-.5-.26zm-1.78 4.48c-.17.25-.5.42-.85.34s-.6-.17-.76-.42c-.17-.17-.17-.42-.08-.68.08-.25.25-.34.34-.42.17-.08.34-.08.5-.08.08 0 .17 0 .34.08.25.08.42.17.6.42.16.34.08.6-.1.76z"/></g></svg>