<svg xmlns="http://www.w3.org/2000/svg" baseProfile="tiny" viewBox="0 0 50 50"><path fill="#6b8449" d="M46.6 24c-2.5-.9-5.3-2.9-7.3-4.6a4.4 4.4 0 0 0-5.7 0 27.3 27.3 0 0 1-4.2 3c-.7-.6-1.5-1.1-2.4-1.3-2-.5-4.1-.9-6.2-1.2-.6-.1-1.1.2-1.3.7L16.3 27l-3.2-6.4c-.2-.5-.8-.8-1.3-.7-2.2.2-4.3.6-6.2 1.2-2.8.7-4.6 3.1-4.6 5.8v11c0 .7.6 1.3 1.3 1.3h24a24.2 24.2 0 0 0 7.8 9c1.3.9 3.1.9 4.4 0 6.6-4.5 10.5-12 10.5-20v-.8c0-1.5-.9-2.9-2.4-3.4zm-.3 4.2a22.2 22.2 0 0 1-9.3 18c-.4.3-.9.3-1.3 0-5.9-4.1-9.4-10.8-9.4-18v-.5c0-.6.3-1.1.9-1.2a29.7 29.7 0 0 0 8.5-5.1 1.2 1.2 0 0 1 1.4 0c1.8 1.5 4.8 3.8 8.4 5.1.5.2.9.7.9 1.2l-.1.5z"/><path d="M36.4 23.6c-2 1.6-4.7 3.4-7.8 4.6.1 6.1 3 11.9 7.8 15.7 4.8-3.8 7.6-9.6 7.7-15.7-3.1-1.2-5.8-3.1-7.7-4.6zM16.2 3.7c-2.9 0-5.3 2.4-5.3 5.3s2.4 5.3 5.3 5.3 5.3-2.4 5.3-5.3-2.4-5.3-5.3-5.3z" fill="#cff09e"/><path fill="#6b8449" d="M16.2 17c4.4 0 8-3.6 8-8s-3.6-8-8-8-8 3.6-8 8 3.6 8 8 8zm0-13.3c2.9 0 5.3 2.4 5.3 5.3s-2.4 5.3-5.3 5.3-5.3-2.4-5.3-5.3 2.4-5.3 5.3-5.3z"/><path fill="#fde89c" d="M26.1 24.1c-1.4.5-2.4 1.9-2.4 3.4v.6c0 2.9.5 5.8 1.5 8.5H3.7v-2.1h2.1c.7 0 1.3-.6 1.3-1.3s-.6-1.3-1.3-1.3H3.7v-2.4h4.4c.7 0 1.3-.6 1.3-1.3s-.6-1.3-1.3-1.3H3.7c0-.88.43-1.7 1.1-2.32.4-.36.87-.63 1.4-.78 1.5-.4 3.2-.8 4.9-1l3.9 8c.5 1 1.9 1 2.4 0l3.9-8c1.7.2 3.4.6 4.9 1 .1 0 .2.1.3.1-.1.1-.3.2-.4.2z"/></svg>